<?xml version="1.0" encoding="UTF-8"?>
<svg width="132px" height="46px" viewBox="0 0 132 46" version="1.1" xmlns="http://www.w3.org/2000/svg" xmlns:xlink="http://www.w3.org/1999/xlink">
    <!-- Generator: Sketch 58 (84663) - https://sketch.com -->
    <title>Branding/Logo/X-Team</title>
    <desc>Created with Sketch.</desc>
    <g id="Symbols" stroke="none" stroke-width="1" fill="none" fill-rule="evenodd">
        <g id="Ui/Header/Homepage" transform="translate(-80.000000, -60.000000)" fill="#000000">
            <g id="Branding/Logo/X-Team" transform="translate(80.000000, 60.000000)">
                <path d="M12.6228987,-7.10542736e-15 L34.270995,21.0528947 L9.884765,45.1000002 L-1.0658141e-14,35.5633027 L13.8444075,21.1346907 L2.45106125,9.96890072 L12.6228987,-7.10542736e-15 Z M35.6525675,22.5703419 L45.58092,32.300495 L35.4092612,42.2691529 L25.4811562,32.5389187 L35.6525675,22.5703419 Z M120.802633,14.7578875 L120.951834,15.718644 L123.563426,28.4340074 L120.634278,28.4718337 L119.391965,22.1424777 L115.129218,29.3922449 L111.415755,22.0924964 L109.556535,28.5911465 L106.713448,28.5911465 L110.723896,14.8864982 L115.286229,24.5884074 L120.802633,14.7578875 Z M65.4201075,14.6777072 L67.3646875,16.4891528 L61.2907213,22.157395 L63.9349563,27.7606177 L61.21577,28.9204632 L59.1796975,24.1817278 L54.3506563,29.0107897 L52.2989638,27.3620643 L58.081375,21.8386975 L55.2550763,16.1837282 L57.8811063,14.7694637 L60.1742075,19.7959714 L65.4201075,14.6777072 Z M102.23862,14.8941363 L105.835276,28.5394383 L102.957195,28.5394383 L102.456145,26.4003618 L96.8409063,26.4003618 L95.2207438,28.5554735 L92.1676938,28.5554735 L102.225613,14.9085023 L102.226108,14.9126658 L102.23862,14.8941363 Z M85.7369288,15.7406633 L95.3515063,15.7635983 L94.6073975,18.2670017 L87.8058775,18.2505484 L87.0400163,20.8631034 L93.0146663,20.8776977 L92.2714925,23.3440297 L86.29709,23.3299208 L85.4919725,26.0342185 L91.6493875,26.0031573 L90.905045,28.506331 L81.9541938,28.530223 L85.7369288,15.7406633 Z M73.350915,15.7116907 L84.013435,15.7373578 L83.2485225,18.3318288 L79.3328938,18.3222588 L76.3148238,28.5178467 L73.4833275,28.5108342 L76.501865,18.3155034 L72.5855213,18.3059334 L73.350915,15.7116907 Z M101.122326,20.7046044 L98.707455,23.9166622 L101.874245,23.9166622 L101.122326,20.7046044 Z M66.73359,20.9075819 L72.395895,20.9198469 L71.5921938,23.3340279 L65.9301363,23.3220187 L66.73359,20.9075819 Z M35.4090275,-1.77635684e-15 L45.58092,9.96890072 L35.7360437,19.6175404 L25.5639175,9.64863957 L35.4090275,-1.77635684e-15 Z M129.016704,12.3056916 C130.694328,12.3056916 132,13.6260986 132,15.2296954 C132,16.8332782 130.677291,18.1694523 128.999915,18.1694523 C127.322773,18.1694523 126.017086,16.8495032 126.017086,15.245677 C126.017086,13.6418651 127.338846,12.3056916 129.016704,12.3056916 Z M129.016704,12.5325533 C127.446426,12.5325533 126.265123,13.7554108 126.265123,15.245677 C126.265123,16.7359447 127.438149,17.9430489 128.999915,17.9430489 C130.570179,17.9430489 131.751964,16.71949 131.751964,15.2296954 C131.751964,13.739415 130.578456,12.5325533 129.016704,12.5325533 Z M129.215323,13.67453 C129.859414,13.67453 130.33042,14.0063799 130.33042,14.5331012 C130.33042,14.9785501 130.046104,15.25381 129.622991,15.3651404 L129.504265,15.3914435 L130.512498,16.6388532 L130.049755,16.6388532 L129.090954,15.4482159 L128.2149,15.4482159 L128.2149,16.6388532 L127.85927,16.6388532 L127.85927,13.67453 L129.215323,13.67453 Z M129.198066,14.0063799 L128.2149,14.0063799 L128.2149,15.1242494 L129.157394,15.1242494 C129.611845,15.1242494 129.958716,14.929823 129.958716,14.5490965 C129.958716,14.208905 129.66954,14.0063799 129.198066,14.0063799 Z" id="Combined-Shape"></path>
            </g>
        </g>
    </g>
</svg>